<?xml version="1.0" encoding="utf-8"?>
<!-- Generator: Adobe Illustrator 16.0.0, SVG Export Plug-In . SVG Version: 6.00 Build 0)  -->
<!DOCTYPE svg PUBLIC "-//W3C//DTD SVG 1.1//EN" "http://www.w3.org/Graphics/SVG/1.1/DTD/svg11.dtd">
<svg version="1.1" id="Layer_1" xmlns="http://www.w3.org/2000/svg" xmlns:xlink="http://www.w3.org/1999/xlink" x="0px" y="0px"
	 width="150.75px" height="77.5px" viewBox="0 0 150.75 77.5" enable-background="new 0 0 150.75 77.5" xml:space="preserve">
<g id="Film_01">
</g>
<g id="New_Symbol_8">
</g>
<g>
	<polygon fill="#777777" points="14.75,73.366 14.75,52.894 81.227,15.2 109.795,36.501 122.727,36.447 81.227,4.257 4.468,47.488 
		4.468,73.366 	"/>
</g>
<g>
	<path fill="#777777" d="M36.688,73.366h-3.998l-2.558-4.24c-0.525-0.877-0.957-1.442-1.294-1.694
		c-0.337-0.253-0.694-0.379-1.073-0.379h-1.053v6.313H23.24v-16.3h5.714c3.879,0,5.818,1.474,5.818,4.42
		c0,1.108-0.324,2.059-0.973,2.852c-0.649,0.793-1.542,1.351-2.679,1.673v0.042c0.751,0.253,1.582,1.08,2.494,2.483L36.688,73.366z
		 M26.712,59.708V64.4h1.705c0.813,0,1.468-0.236,1.963-0.71c0.494-0.474,0.741-1.064,0.741-1.773c0-1.473-0.88-2.209-2.641-2.209
		H26.712z"/>
	<path fill="#777777" d="M47.938,73.366h-9.649v-16.3h9.271v2.841H41.76v3.841h5.388v2.831H41.76v3.946h6.178V73.366z"/>
	<path fill="#777777" d="M59.48,61.56c0.532,0,0.989,0.17,1.367,0.511c0.379,0.34,0.568,0.759,0.568,1.257
		c0,0.484-0.186,0.896-0.558,1.236c-0.372,0.341-0.831,0.511-1.378,0.511c-0.541,0-0.995-0.172-1.363-0.516
		s-0.552-0.754-0.552-1.231c0-0.49,0.188-0.908,0.563-1.252S58.954,61.56,59.48,61.56z M59.48,70.136
		c0.532,0,0.989,0.172,1.367,0.516c0.379,0.344,0.568,0.761,0.568,1.252c0,0.478-0.189,0.888-0.568,1.231
		c-0.378,0.344-0.835,0.516-1.367,0.516c-0.533,0-0.986-0.172-1.357-0.516c-0.372-0.344-0.558-0.754-0.558-1.231
		c0-0.491,0.186-0.908,0.558-1.252C58.494,70.308,58.947,70.136,59.48,70.136z"/>
	<path fill="#777777" d="M86.051,73.366h-3.473v-6.724h-6.944v6.724h-3.473v-16.3h3.473v6.577h6.944v-6.577h3.473V73.366z"/>
	<path fill="#777777" d="M88.84,65.432c0-2.553,0.745-4.631,2.235-6.234c1.491-1.603,3.461-2.404,5.909-2.404
		c2.329,0,4.203,0.775,5.624,2.325c1.421,1.551,2.131,3.543,2.131,5.978c0,2.539-0.738,4.6-2.215,6.182s-3.411,2.373-5.804,2.373
		c-2.336,0-4.233-0.767-5.692-2.299C89.569,69.818,88.84,67.846,88.84,65.432z M92.491,65.242c0,1.586,0.382,2.882,1.146,3.889
		s1.813,1.51,3.146,1.51c1.361,0,2.42-0.482,3.178-1.446c0.758-0.965,1.137-2.261,1.137-3.889c0-1.697-0.368-3.039-1.105-4.024
		c-0.736-0.986-1.774-1.479-3.114-1.479c-1.361,0-2.433,0.505-3.215,1.515C92.882,62.328,92.491,63.637,92.491,65.242z"/>
	<path fill="#777777" d="M120.649,66.358c0,4.861-2.259,7.292-6.776,7.292c-4.364,0-6.546-2.368-6.546-7.103v-9.481h3.483v9.502
		c0,2.715,1.069,4.072,3.21,4.072c2.104,0,3.156-1.308,3.156-3.925v-9.649h3.473V66.358z"/>
	<path fill="#777777" d="M123.48,69.263c1.312,1.087,2.803,1.631,4.472,1.631c0.947,0,1.659-0.163,2.137-0.489
		c0.477-0.326,0.715-0.745,0.715-1.258c0-0.441-0.189-0.859-0.567-1.252c-0.379-0.393-1.379-0.926-2.999-1.6
		c-2.547-1.08-3.82-2.651-3.82-4.714c0-1.516,0.577-2.692,1.731-3.531c1.153-0.838,2.681-1.257,4.582-1.257
		c1.593,0,2.929,0.207,4.01,0.621v3.262c-1.095-0.743-2.375-1.115-3.841-1.115c-0.856,0-1.54,0.156-2.052,0.468
		c-0.513,0.313-0.769,0.731-0.769,1.258c0,0.421,0.175,0.809,0.526,1.163c0.351,0.354,1.217,0.833,2.599,1.436
		c1.621,0.695,2.734,1.428,3.341,2.199c0.607,0.772,0.91,1.691,0.91,2.758c0,1.564-0.554,2.757-1.662,3.577
		c-1.108,0.821-2.684,1.231-4.725,1.231c-1.866,0-3.396-0.302-4.588-0.905V69.263z"/>
	<path fill="#777777" d="M146.841,73.366h-9.649v-16.3h9.271v2.841h-5.798v3.841h5.388v2.831h-5.388v3.946h6.177V73.366z"/>
</g>
<g>
	<path fill="#777777" d="M47.969,45.391h0.413l1.085,3.068c0.141,0.378,0.28,0.763,0.421,1.148h0.027
		c0.141-0.386,0.267-0.771,0.399-1.148l1.093-3.068h0.413v5.085h-0.259V46.96c0-0.399,0.014-0.918,0.028-1.331h-0.028l-0.393,1.121
		l-1.142,3.158h-0.273l-1.148-3.158l-0.398-1.121h-0.028c0.021,0.413,0.035,0.932,0.035,1.331v3.516h-0.245V45.391z"/>
	<path fill="#777777" d="M53.051,49.565c0-0.819,0.749-1.205,2.409-1.395c0.021-0.595-0.134-1.246-0.896-1.246
		c-0.525,0-0.967,0.259-1.205,0.448l-0.126-0.203c0.231-0.168,0.742-0.477,1.345-0.477c0.868,0,1.135,0.645,1.135,1.394v2.389h-0.21
		l-0.035-0.49h-0.021c-0.378,0.309-0.84,0.581-1.33,0.581C53.541,50.566,53.051,50.266,53.051,49.565z M55.46,49.712v-1.323
		c-1.604,0.175-2.15,0.546-2.15,1.169c0,0.567,0.378,0.778,0.826,0.778C54.577,50.336,54.977,50.125,55.46,49.712z"/>
	<path fill="#777777" d="M57.075,44.915h0.252v4.202h0.015l1.897-2.333h0.295l-1.191,1.457l1.401,2.234h-0.273l-1.274-2.045
		l-0.869,1.029v1.016h-0.252V44.915z"/>
	<path fill="#777777" d="M60.169,48.641c0-1.205,0.771-1.947,1.59-1.947c0.854,0,1.395,0.609,1.395,1.702
		c0,0.077,0,0.161-0.015,0.252h-2.703c0,0.974,0.567,1.688,1.436,1.688c0.42,0,0.735-0.134,1.016-0.337l0.112,0.218
		c-0.28,0.168-0.596,0.35-1.142,0.35C60.926,50.566,60.169,49.846,60.169,48.641z M62.908,48.416c0-1.001-0.456-1.491-1.149-1.491
		c-0.658,0-1.246,0.561-1.323,1.491H62.908z"/>
	<path fill="#777777" d="M66.539,48.389l-1.526-2.998h0.28l0.806,1.632c0.188,0.379,0.356,0.735,0.56,1.106h0.028
		c0.203-0.371,0.399-0.728,0.567-1.106l0.813-1.632h0.259l-1.526,2.998v2.087h-0.26V48.389z"/>
	<path fill="#777777" d="M68.534,48.641c0-1.239,0.756-1.947,1.639-1.947s1.639,0.708,1.639,1.947c0,1.219-0.756,1.926-1.639,1.926
		S68.534,49.859,68.534,48.641z M71.553,48.641c0-1.016-0.596-1.716-1.38-1.716s-1.373,0.7-1.373,1.716
		c0,1.009,0.589,1.695,1.373,1.695S71.553,49.649,71.553,48.641z"/>
	<path fill="#777777" d="M72.896,49.159v-2.375h0.252v2.347c0,0.813,0.259,1.205,0.883,1.205c0.455,0,0.798-0.245,1.253-0.792v-2.76
		h0.253v3.691h-0.218l-0.027-0.63h-0.015c-0.371,0.427-0.756,0.721-1.268,0.721C73.253,50.566,72.896,50.118,72.896,49.159z"/>
	<path fill="#777777" d="M76.997,46.784h0.21l0.042,0.693h0.015c0.245-0.448,0.603-0.784,1.043-0.784
		c0.127,0,0.231,0.015,0.357,0.077l-0.063,0.231c-0.119-0.049-0.183-0.063-0.329-0.063c-0.329,0-0.735,0.26-1.023,0.987v2.55h-0.252
		V46.784z"/>
	<path fill="#777777" d="M80.945,45.391h0.259v4.854h2.381v0.231h-2.64V45.391z"/>
	<path fill="#777777" d="M84.333,45.587c0-0.175,0.119-0.273,0.267-0.273c0.14,0,0.272,0.099,0.272,0.273
		c0,0.161-0.133,0.267-0.272,0.267C84.452,45.854,84.333,45.748,84.333,45.587z M84.466,46.784h0.252v3.691h-0.252V46.784z"/>
	<path fill="#777777" d="M87.512,45.16c-0.154-0.077-0.309-0.112-0.448-0.112c-0.42,0-0.603,0.322-0.603,0.875v0.861h0.876v0.231
		h-0.876v3.46h-0.245v-3.46h-0.511v-0.196l0.511-0.035v-0.896c0-0.721,0.322-1.064,0.854-1.064c0.161,0,0.344,0.042,0.519,0.119
		L87.512,45.16z"/>
	<path fill="#777777" d="M87.734,48.641c0-1.205,0.771-1.947,1.59-1.947c0.854,0,1.395,0.609,1.395,1.702
		c0,0.077,0,0.161-0.015,0.252h-2.703c0,0.974,0.567,1.688,1.436,1.688c0.42,0,0.735-0.134,1.016-0.337l0.112,0.218
		c-0.28,0.168-0.596,0.35-1.142,0.35C88.491,50.566,87.734,49.846,87.734,48.641z M90.474,48.416c0-1.001-0.456-1.491-1.149-1.491
		c-0.658,0-1.246,0.561-1.323,1.491H90.474z"/>
	<path fill="#777777" d="M93.321,45.391h2.731v0.231H93.58v2.024h2.073v0.23H93.58v2.367h2.55v0.231h-2.809V45.391z"/>
	<path fill="#777777" d="M96.946,49.565c0-0.819,0.75-1.205,2.409-1.395c0.021-0.595-0.133-1.246-0.896-1.246
		c-0.524,0-0.966,0.259-1.204,0.448l-0.126-0.203c0.23-0.168,0.742-0.477,1.345-0.477c0.868,0,1.135,0.645,1.135,1.394v2.389h-0.21
		l-0.035-0.49h-0.021c-0.378,0.309-0.84,0.581-1.331,0.581C97.437,50.566,96.946,50.266,96.946,49.565z M99.355,49.712v-1.323
		c-1.604,0.175-2.149,0.546-2.149,1.169c0,0.567,0.378,0.778,0.826,0.778C98.474,50.336,98.873,50.125,99.355,49.712z"/>
	<path fill="#777777" d="M100.495,50.063l0.161-0.203c0.309,0.266,0.651,0.477,1.198,0.477c0.616,0,0.932-0.357,0.932-0.778
		c0-0.482-0.49-0.7-0.925-0.854c-0.561-0.203-1.19-0.414-1.19-1.051c0-0.512,0.398-0.96,1.162-0.96c0.364,0,0.757,0.154,1.022,0.378
		l-0.146,0.189c-0.245-0.182-0.512-0.336-0.896-0.336c-0.609,0-0.883,0.35-0.883,0.714c0,0.441,0.448,0.609,0.89,0.777
		c0.588,0.225,1.226,0.406,1.226,1.128c0,0.547-0.428,1.022-1.205,1.022C101.287,50.566,100.824,50.336,100.495,50.063z"/>
	<path fill="#777777" d="M103.926,45.587c0-0.175,0.119-0.273,0.266-0.273c0.141,0,0.273,0.099,0.273,0.273
		c0,0.161-0.133,0.267-0.273,0.267C104.045,45.854,103.926,45.748,103.926,45.587z M104.059,46.784h0.252v3.691h-0.252V46.784z"/>
	<path fill="#777777" d="M105.451,48.641c0-1.205,0.771-1.947,1.59-1.947c0.854,0,1.394,0.609,1.394,1.702
		c0,0.077,0,0.161-0.014,0.252h-2.703c0,0.974,0.567,1.688,1.436,1.688c0.42,0,0.735-0.134,1.016-0.337l0.112,0.218
		c-0.28,0.168-0.596,0.35-1.142,0.35C106.208,50.566,105.451,49.846,105.451,48.641z M108.189,48.416
		c0-1.001-0.455-1.491-1.148-1.491c-0.658,0-1.246,0.561-1.323,1.491H108.189z"/>
	<path fill="#777777" d="M109.463,46.784h0.21l0.042,0.693h0.015c0.245-0.448,0.602-0.784,1.043-0.784
		c0.126,0,0.231,0.015,0.357,0.077l-0.063,0.231c-0.119-0.049-0.182-0.063-0.329-0.063c-0.329,0-0.735,0.26-1.022,0.987v2.55h-0.252
		V46.784z"/>
</g>
<rect x="75.983" y="28.265" fill="#777777" width="3.342" height="3.341"/>
<rect x="81.537" y="28.265" fill="#777777" width="3.342" height="3.341"/>
<rect x="75.983" y="33.523" fill="#777777" width="3.342" height="3.341"/>
<rect x="81.537" y="33.523" fill="#777777" width="3.342" height="3.341"/>
<polygon fill="#777777" points="63.734,4.257 4.468,37.332 4.468,42.311 71.703,4.257 "/>
</svg>
